<?xml version="1.0" encoding="utf-8"?>
<!-- Generator: Adobe Illustrator 25.0.1, SVG Export Plug-In . SVG Version: 6.00 Build 0)  -->
<svg version="1.1" id="レイヤー_1" xmlns="http://www.w3.org/2000/svg" xmlns:xlink="http://www.w3.org/1999/xlink" x="0px"
	 y="0px" viewBox="0 0 352 191" style="enable-background:new 0 0 352 191;" xml:space="preserve">
<style type="text/css">
	.st0{fill:#000000;}
</style>
<rect x="60" y="-474.6" class="st0" width="354" height="191"/>
<g>
	<path d="M20,4.2l11.5,38.2h0.1L42.5,4.2h15.2v55.6H47.6V20.4h-0.1L35.4,59.8h-8.3L15,20.8h-0.1v39H4.8V4.2H20z"/>
	<path d="M104,4.2v10.3H78v11.9h23.8v9.5H78v13.6h26.5v10.3H67.2V4.2H104z"/>
	<path d="M133.1,4.2c3.2,0,6.1,0.6,8.9,1.7c2.7,1.1,5.1,2.9,7.1,5.1c2,2.3,3.6,5.1,4.7,8.6c1.1,3.4,1.7,7.4,1.7,12.1
		c0,4-0.5,7.8-1.4,11.2s-2.3,6.4-4.2,8.9s-4.2,4.4-7,5.9c-2.8,1.4-6.1,2.1-9.8,2.1h-21.2V4.2H133.1z M132.3,49.5
		c1.6,0,3.1-0.3,4.5-0.9c1.5-0.6,2.8-1.5,3.9-2.8c1.1-1.3,2.1-3,2.8-5.2c0.7-2.1,1-4.7,1-7.8c0-2.8-0.2-5.3-0.7-7.6
		s-1.3-4.2-2.4-5.8c-1.1-1.6-2.6-2.8-4.4-3.7c-1.8-0.9-4.1-1.3-6.7-1.3h-7.7v35h9.7V49.5z"/>
	<path d="M173.7,4.2v55.6h-10.8V4.2H173.7z"/>
	<path d="M207.8,4.2l18.4,55.6H215l-3.7-12.4h-18.4L189,59.8h-10.9l18.6-55.6C196.7,4.2,207.8,4.2,207.8,4.2z M208.4,38.3l-6.2-20.4
		H202l-6.4,20.4H208.4z"/>
	<path d="M26.9,68.3c3.1,0,5.7,0.5,7.9,1.5s3.9,2.3,5.3,4c1.4,1.7,2.3,3.6,3,5.7c0.6,2.1,0.9,4.3,0.9,6.6c0,2.2-0.3,4.4-0.9,6.6
		c-0.6,2.2-1.6,4.1-3,5.7c-1.4,1.7-3.1,3-5.3,4s-4.8,1.5-7.9,1.5H15.6v19.9H4.8V68.3H26.9z M24,94.5c1.2,0,2.4-0.1,3.6-0.3
		c1.1-0.2,2.2-0.6,3-1.2c0.9-0.6,1.6-1.4,2.1-2.5s0.8-2.5,0.8-4.3s-0.3-3.2-0.8-4.3c-0.5-1.1-1.2-1.9-2.1-2.5s-1.9-1-3-1.2
		s-2.3-0.3-3.6-0.3h-8.4v16.7L24,94.5L24,94.5z"/>
	<path d="M77.2,68.3c2.2,0,4.2,0.4,6,1.2c1.8,0.8,3.3,1.9,4.5,3.3c1.3,1.4,2.2,3,2.9,4.9c0.7,1.8,1,3.8,1,6c0,3.3-0.6,6.1-1.8,8.5
		c-1.2,2.4-3.2,4.2-6,5.4v0.2c1.3,0.4,2.4,1.1,3.3,1.9c0.9,0.9,1.6,1.9,2.1,3c0.6,1.2,1,2.5,1.2,3.9c0.3,1.4,0.4,2.8,0.5,4.2
		c0,0.9,0.1,1.9,0.1,3.1s0.1,2.4,0.2,3.7c0.1,1.2,0.3,2.4,0.6,3.5c0.3,1.1,0.6,2.1,1.1,2.8H82.2c-0.6-1.8-1-3.9-1.1-6.3
		s-0.3-4.8-0.6-7c-0.4-2.9-1.1-5-2.3-6.4c-1.2-1.3-3.1-2-5.9-2H61.5v21.7H50.7V68.3H77.2z M73.4,93.5c2.5,0,4.3-0.6,5.6-1.9
		c1.2-1.2,1.9-3.3,1.9-6.1c0-2.7-0.6-4.7-1.9-5.9c-1.2-1.2-3.1-1.8-5.6-1.8H61.5v15.6h11.9V93.5z"/>
	<path d="M125,68.3l18.4,55.6h-11.2l-3.7-12.4H110l-3.9,12.4H95.3l18.6-55.6H125z M125.6,102.4L119.4,82h-0.1l-6.4,20.4H125.6z"/>
	<path d="M179.2,83.2c-0.6-1.2-1.4-2.2-2.4-3.1s-2.1-1.6-3.3-2.1s-2.5-0.7-3.8-0.7c-2.4,0-4.5,0.5-6.2,1.6s-3.1,2.5-4.1,4.3
		c-1.1,1.8-1.8,3.8-2.3,6.1c-0.5,2.3-0.7,4.6-0.7,7.1c0,2.3,0.2,4.6,0.7,6.8c0.5,2.2,1.3,4.2,2.3,6c1.1,1.8,2.4,3.2,4.1,4.2
		c1.7,1.1,3.8,1.6,6.2,1.6c3.3,0,5.9-1.1,7.8-3.4c1.9-2.3,3-5.3,3.4-9h10.5c-0.3,3.5-1,6.6-2.1,9.4s-2.7,5.2-4.5,7.2
		c-1.9,2-4.1,3.5-6.6,4.5s-5.3,1.6-8.3,1.6c-3.8,0-7.2-0.7-10.2-2.2s-5.5-3.5-7.6-6.1s-3.7-5.6-4.8-9.1s-1.7-7.3-1.7-11.3
		c0-4.1,0.6-8,1.7-11.6c1.1-3.6,2.7-6.7,4.8-9.3s4.6-4.7,7.6-6.2s6.4-2.3,10.2-2.3c2.7,0,5.3,0.4,7.7,1.3s4.6,2.2,6.5,3.9
		c1.9,1.7,3.5,3.8,4.7,6.3s2,5.3,2.3,8.6h-10.5C180.2,85.6,179.8,84.3,179.2,83.2z"/>
	<path d="M194.8,78.6V68.3h40.3v10.3h-14.7v45.3h-10.8V78.6H194.8z"/>
	<path d="M251.6,68.3v55.6h-10.8V68.3H251.6z"/>
	<path d="M292.6,83.2c-0.6-1.2-1.4-2.2-2.4-3.1s-2.1-1.6-3.3-2.1c-1.2-0.5-2.5-0.7-3.8-0.7c-2.4,0-4.5,0.5-6.2,1.6s-3.1,2.5-4.1,4.3
		c-1.1,1.8-1.8,3.8-2.3,6.1c-0.5,2.3-0.7,4.6-0.7,7.1c0,2.3,0.2,4.6,0.7,6.8c0.5,2.2,1.2,4.2,2.3,6c1.1,1.8,2.4,3.2,4.1,4.2
		c1.7,1.1,3.8,1.6,6.2,1.6c3.3,0,5.9-1.1,7.8-3.4s3-5.3,3.4-9h10.5c-0.3,3.5-1,6.6-2.1,9.4s-2.7,5.2-4.5,7.2c-1.9,2-4.1,3.5-6.6,4.5
		s-5.3,1.6-8.3,1.6c-3.8,0-7.2-0.7-10.2-2.2s-5.5-3.5-7.6-6.1s-3.7-5.6-4.8-9.1c-1.1-3.5-1.7-7.3-1.7-11.3c0-4.1,0.6-8,1.7-11.6
		s2.7-6.7,4.8-9.3c2.1-2.6,4.6-4.7,7.6-6.2s6.4-2.3,10.2-2.3c2.7,0,5.3,0.4,7.7,1.3c2.4,0.9,4.6,2.2,6.5,3.9
		c1.9,1.7,3.5,3.8,4.7,6.3s2,5.3,2.3,8.6H294C293.7,85.6,293.3,84.3,292.6,83.2z"/>
	<path d="M348.9,68.3v10.3h-26v11.9h23.8v9.5h-23.8v13.6h26.5v10.3h-37.3V68.3H348.9z"/>
	<path d="M3.5,145.8c0.7-2.7,1.8-5,3.3-7s3.3-3.6,5.5-4.7c2.2-1.1,4.8-1.7,7.7-1.7c2.2,0,4.3,0.4,6.3,1.2s3.8,1.9,5.3,3.3
		c1.5,1.5,2.7,3.2,3.6,5.4c0.9,2.1,1.3,4.5,1.3,7.2c0,2.8-0.4,5.1-1.2,7.1s-1.8,3.7-3.1,5.3c-1.3,1.5-2.7,2.9-4.4,4.2
		c-1.6,1.2-3.3,2.5-4.9,3.7c-1.7,1.2-3.3,2.5-4.8,3.9c-1.6,1.4-2.9,3-4.1,4.9h22.8v9.5H1.4c0-3.2,0.4-5.9,1.2-8.2s1.9-4.4,3.3-6.3
		c1.4-1.8,3-3.5,4.9-5.1s3.8-3.1,5.9-4.7c1.1-0.8,2.2-1.7,3.4-2.5c1.2-0.9,2.3-1.8,3.3-2.8s1.8-2.2,2.5-3.5s1-2.8,1-4.4
		c0-2.6-0.7-4.7-2-6.2c-1.4-1.5-3.1-2.2-5.2-2.2c-1.4,0-2.6,0.4-3.6,1.1c-1,0.8-1.8,1.7-2.4,3c-0.6,1.2-1,2.6-1.3,4
		c-0.3,1.5-0.4,2.9-0.4,4.4H2.5C2.5,151.4,2.8,148.5,3.5,145.8z"/>
	<path d="M41.2,147.2c0.9-3.6,2.2-6.5,3.8-8.7s3.5-3.7,5.6-4.7c2.1-0.9,4.4-1.4,6.8-1.4c2.4,0,4.7,0.5,6.9,1.4
		c2.1,0.9,4,2.5,5.6,4.7s2.9,5.1,3.9,8.7c0.9,3.6,1.4,8.1,1.4,13.3c0,5.4-0.5,10-1.4,13.7s-2.2,6.6-3.9,8.8
		c-1.6,2.2-3.5,3.7-5.6,4.7c-2.1,0.9-4.4,1.4-6.9,1.4c-2.4,0-4.6-0.5-6.8-1.4c-2.1-0.9-4-2.5-5.6-4.7s-2.9-5.1-3.8-8.8
		c-0.9-3.7-1.4-8.2-1.4-13.7C39.7,155.3,40.2,150.8,41.2,147.2z M49.7,166.2c0.1,2.2,0.4,4.3,0.9,6.4c0.5,2,1.3,3.8,2.3,5.3
		c1.1,1.5,2.6,2.2,4.5,2.2c2,0,3.6-0.7,4.6-2.2c1.1-1.5,1.9-3.2,2.3-5.3c0.5-2,0.8-4.2,0.9-6.4s0.1-4.1,0.1-5.6c0-0.9,0-2.1,0-3.4
		c0-1.3-0.1-2.7-0.3-4.1c-0.2-1.4-0.4-2.8-0.7-4.2c-0.3-1.4-0.7-2.6-1.3-3.7c-0.6-1.1-1.4-2-2.3-2.6c-0.9-0.7-2-1-3.4-1
		c-1.3,0-2.4,0.3-3.3,1c-0.9,0.7-1.6,1.6-2.2,2.6c-0.6,1.1-1,2.3-1.3,3.7s-0.6,2.8-0.7,4.2s-0.2,2.8-0.2,4.1s0,2.5,0,3.4
		C49.5,162.1,49.6,164,49.7,166.2z"/>
	<path d="M101,162v9.5H80.3V162H101z"/>
	<path d="M108.1,145.8c0.7-2.7,1.8-5,3.3-7s3.3-3.6,5.5-4.7c2.2-1.1,4.8-1.7,7.7-1.7c2.2,0,4.3,0.4,6.3,1.2s3.8,1.9,5.3,3.3
		c1.5,1.5,2.7,3.2,3.6,5.4c0.9,2.1,1.3,4.5,1.3,7.2c0,2.8-0.4,5.1-1.2,7.1s-1.8,3.7-3.1,5.3c-1.3,1.5-2.7,2.9-4.4,4.2
		c-1.6,1.2-3.3,2.5-4.9,3.7c-1.7,1.2-3.3,2.5-4.8,3.9c-1.6,1.4-2.9,3-4.1,4.9h22.8v9.5H106c0-3.2,0.4-5.9,1.2-8.2
		c0.8-2.3,1.9-4.4,3.3-6.3c1.4-1.8,3-3.5,4.9-5.1s3.8-3.1,5.9-4.7c1.1-0.8,2.2-1.7,3.4-2.5c1.2-0.9,2.3-1.8,3.3-2.8s1.8-2.2,2.5-3.5
		s1-2.8,1-4.4c0-2.6-0.7-4.7-2-6.2c-1.4-1.5-3.1-2.2-5.2-2.2c-1.4,0-2.6,0.4-3.6,1.1c-1,0.8-1.8,1.7-2.4,3c-0.6,1.2-1,2.6-1.3,4
		c-0.3,1.5-0.4,2.9-0.4,4.4h-9.4C107.1,151.4,107.4,148.5,108.1,145.8z"/>
	<path d="M160.2,188v-35.3H148v-8.3c1.7,0.1,3.3-0.1,4.9-0.4c1.6-0.3,3-0.9,4.3-1.8c1.3-0.9,2.3-2,3.2-3.4s1.4-3.1,1.7-5.2h7.8V188
		H160.2z"/>
</g>
</svg>
